<?xml version="1.0" standalone="no"?>
<!DOCTYPE svg PUBLIC "-//W3C//DTD SVG 20010904//EN"
 "http://www.w3.org/TR/2001/REC-SVG-20010904/DTD/svg10.dtd">
<svg version="1.0" xmlns="http://www.w3.org/2000/svg"
 width="460.000000pt" height="460.000000pt" viewBox="0 0 460.000000 460.000000"
 preserveAspectRatio="xMidYMid meet">

<g transform="translate(0.000000,460.000000) scale(0.100000,-0.100000)"
fill="#000000" stroke="none">
<path d="M1925 4359 c-235 -22 -396 -163 -505 -442 -39 -98 -79 -180 -125
-251 -49 -78 -65 -121 -81 -230 -15 -102 -16 -95 17 -426 5 -52 12 -113 15
-134 6 -33 4 -38 -9 -33 -36 14 -25 -33 21 -88 l25 -30 -6 135 c-4 74 -13 162
-20 195 -8 33 -14 69 -15 80 -1 74 -16 184 -23 173 -7 -10 -9 -9 -9 4 0 9 5
20 11 24 6 3 9 18 6 32 -11 57 42 204 105 294 35 50 145 81 190 54 17 -10 70
-4 228 27 41 9 88 13 103 10 16 -3 46 0 68 7 35 12 42 11 56 -3 15 -15 17 -15
29 0 10 15 16 15 52 4 22 -8 52 -11 67 -9 31 6 84 -17 93 -41 3 -9 12 -21 20
-27 8 -6 12 -16 8 -22 -5 -8 5 -12 33 -12 23 0 41 -5 41 -11 0 -6 12 -25 26
-43 23 -27 25 -31 10 -34 -28 -6 -14 -37 14 -35 19 2 31 -6 50 -35 14 -20 28
-45 32 -54 4 -10 12 -18 18 -18 6 0 10 -8 8 -17 -2 -10 4 -18 12 -19 31 -2 34
-6 11 -13 -14 -4 -27 -13 -29 -20 -3 -9 0 -11 7 -6 17 10 83 -4 76 -16 -4 -5
1 -9 9 -9 9 0 16 -5 16 -11 0 -6 9 -9 19 -6 11 3 22 -1 25 -9 3 -7 12 -11 19
-8 13 4 82 -64 74 -73 -2 -1 -24 -3 -50 -4 -32 -2 -47 -7 -47 -16 0 -7 -7 -13
-15 -13 -8 0 -25 -5 -39 -12 -20 -9 -23 -14 -15 -25 9 -10 6 -13 -14 -13 -14
0 -27 -7 -31 -15 -3 -8 -13 -15 -23 -15 -24 0 -103 -40 -103 -52 0 -5 -6 -24
-14 -41 -8 -18 -17 -48 -20 -69 -4 -23 -15 -42 -31 -52 -15 -10 -26 -29 -30
-53 -6 -34 -46 -163 -62 -203 -4 -8 -7 -28 -8 -45 -1 -16 -5 -41 -9 -55 -4
-14 0 -53 9 -90 9 -36 19 -76 22 -90 9 -48 35 -120 42 -120 4 0 13 -15 21 -34
7 -19 24 -39 37 -45 12 -6 23 -15 23 -21 0 -5 22 -10 50 -10 42 0 54 -5 81
-31 32 -31 33 -54 3 -66 -12 -4 -25 4 -43 25 -30 38 -71 42 -101 12 -31 -31
-59 -93 -53 -121 4 -20 0 -27 -15 -31 -11 -3 -25 -1 -30 4 -6 6 -27 10 -47 10
-26 0 -34 3 -24 9 27 17 -36 10 -72 -8 l-34 -17 25 -7 c25 -7 25 -7 2 -8 -33
-1 -63 -19 -92 -55 -47 -58 -81 -85 -116 -92 -19 -3 -34 -12 -34 -19 0 -7 -5
-15 -11 -17 -5 -2 -14 -21 -19 -42 l-8 -38 22 21 23 21 -5 -30 c-4 -26 -1 -30
19 -29 13 0 33 4 44 8 12 5 30 3 47 -5 35 -18 39 -18 31 3 -7 17 -6 17 20 0
14 -9 35 -17 46 -17 11 0 23 -5 26 -10 3 -6 18 -7 32 -4 17 5 24 3 19 -4 -8
-13 42 -25 119 -27 141 -4 132 -2 133 -35 0 -16 -4 -30 -9 -30 -5 0 -9 -6 -9
-14 0 -8 -8 -17 -17 -19 -13 -3 -12 -5 5 -6 13 0 20 -5 17 -11 -3 -6 4 -10 17
-10 19 -1 20 -2 7 -10 -8 -5 -56 -12 -105 -16 -79 -6 -90 -9 -91 -26 -1 -14 3
-18 18 -13 14 5 19 2 19 -14 0 -17 5 -19 35 -16 26 4 37 1 41 -10 5 -11 10
-13 19 -5 9 8 15 7 19 -2 5 -10 7 -10 12 0 6 13 42 16 61 4 7 -4 13 -29 14
-56 2 -33 8 -51 21 -60 18 -13 18 -14 -2 -19 -13 -3 -20 0 -20 10 0 8 -5 11
-11 7 -6 -3 -9 -17 -6 -30 3 -19 0 -24 -15 -24 -11 0 -17 -3 -14 -8 2 -4 1
-23 -4 -42 -4 -19 -8 -27 -9 -17 -1 10 -5 15 -11 12 -6 -3 -10 -1 -10 5 0 6
-4 9 -9 6 -5 -3 -9 0 -8 7 1 35 -4 52 -11 39 -9 -14 -42 -6 -42 10 0 5 5 6 10
3 11 -7 14 8 4 18 -14 13 -34 -6 -29 -27 5 -17 4 -18 -4 -6 -10 13 -11 13 -12
0 0 -10 -3 -9 -9 5 -7 14 -8 10 -4 -17 6 -36 5 -37 -25 -36 -17 1 -28 5 -25
10 11 17 -7 29 -24 16 -13 -11 -15 -10 -9 5 9 24 -3 54 -14 35 -6 -8 -9 -1 -9
22 0 26 -3 31 -10 20 -5 -8 -10 -11 -10 -6 0 6 -9 0 -20 -12 -25 -26 -35 -28
-26 -5 4 10 -2 24 -14 36 -19 17 -21 17 -18 2 5 -28 -17 -28 -30 0 -6 14 -16
25 -21 25 -5 0 -12 8 -15 18 -3 9 -4 5 -2 -10 2 -16 -1 -28 -5 -28 -5 0 -9 9
-9 20 0 23 -4 24 -30 10 -17 -9 -21 -6 -26 16 -4 14 -9 22 -13 17 -7 -9 -31
-16 -31 -8 0 2 10 14 23 25 16 16 17 19 5 15 -11 -4 -18 -2 -18 4 0 7 -10 3
-22 -9 -16 -14 -24 -17 -29 -8 -4 7 -5 16 -3 20 10 15 -14 8 -27 -9 -12 -15
-12 -16 4 -10 11 4 17 2 17 -8 0 -8 4 -15 10 -15 5 0 7 -7 4 -15 -4 -10 0 -15
10 -15 10 0 23 -16 32 -40 9 -22 20 -37 25 -34 5 3 9 -5 9 -18 0 -19 2 -20 10
-8 8 13 11 11 16 -7 4 -13 10 -23 14 -23 5 0 12 -10 16 -22 3 -12 12 -28 19
-34 16 -16 82 -44 88 -37 3 2 8 -5 12 -18 4 -12 10 -17 14 -11 4 7 22 3 51
-11 45 -23 96 -25 84 -5 -5 7 -2 8 7 2 8 -4 26 -7 41 -5 16 1 28 -2 28 -8 0
-15 37 -14 43 2 4 8 8 8 14 2 11 -13 33 -17 33 -6 0 5 20 7 44 6 35 -3 46 0
49 13 4 15 5 15 6 0 1 -11 9 -18 21 -18 18 0 24 10 21 35 -1 6 5 2 12 -7 13
-16 15 -16 32 0 10 9 15 11 11 5 -13 -24 17 -13 41 15 20 23 25 25 33 12 7
-11 10 -11 10 -2 0 7 5 10 10 7 6 -3 10 1 10 9 0 9 4 16 10 16 5 0 7 7 4 15
-5 11 -2 13 10 9 12 -5 19 0 23 15 3 11 9 18 14 15 5 -3 12 2 15 10 5 12 10
13 25 5 28 -14 39 -3 33 34 -5 31 -5 31 9 9 l13 -23 12 23 c12 23 12 23 6 1
-4 -16 -1 -23 10 -23 16 0 25 -31 31 -103 2 -24 13 -64 25 -87 18 -35 19 -44
8 -51 -12 -8 -5 -13 14 -10 3 0 9 -12 13 -28 3 -16 15 -37 26 -47 17 -15 25
-16 51 -6 l31 11 -24 -27 c-13 -15 -30 -31 -36 -35 -7 -4 -13 -15 -13 -24 0
-23 81 58 130 128 38 55 100 179 100 200 0 6 3 8 8 5 4 -2 4 35 1 83 -5 70
-11 94 -30 120 -24 32 -61 61 -79 61 -20 0 -50 35 -56 67 -8 44 3 116 22 139
9 11 13 13 9 6 -3 -6 -1 -12 4 -12 6 0 11 8 11 18 0 11 13 37 29 59 16 23 32
54 35 69 11 59 18 75 34 69 11 -4 13 1 10 20 -3 14 -1 25 4 25 5 0 6 5 3 10
-3 6 -3 15 1 21 3 6 9 30 12 53 7 57 7 330 -1 394 -5 39 -3 52 7 52 7 0 21 9
31 20 10 11 23 20 29 20 11 0 34 22 51 49 5 10 4 12 -3 7 -8 -5 -10 -2 -6 8 3
9 10 13 15 10 5 -3 9 11 9 31 0 19 -6 38 -12 40 -25 10 -29 335 -5 335 5 0 6
10 3 23 -24 79 -27 104 -17 148 9 40 8 46 -12 61 -19 14 -24 15 -49 2 -15 -8
-28 -20 -28 -27 0 -6 -7 -21 -16 -32 -14 -18 -14 -15 -9 40 3 33 8 68 11 77 3
9 -2 72 -11 140 -16 122 -96 427 -120 458 -7 8 -25 37 -40 64 -28 48 -144 176
-160 176 -5 0 -18 9 -30 20 -12 11 -32 23 -45 25 -13 2 -35 15 -49 29 -30 27
-117 85 -213 142 -36 21 -64 42 -62 45 5 9 -26 20 -37 13 -5 -3 -9 -1 -9 4 0
21 -301 91 -406 95 -38 2 -105 0 -149 -4z m365 -644 c11 -13 8 -15 -21 -14
-22 1 -27 3 -14 7 l20 5 -20 8 c-19 7 -19 8 1 8 12 1 27 -6 34 -14z m131 -118
c-1 -12 -15 -9 -19 4 -3 6 1 10 8 8 6 -3 11 -8 11 -12z m509 -592 c39 -20 41
-46 3 -36 -16 5 -27 13 -25 20 2 12 -7 14 -48 12 -23 -1 -23 0 -5 8 29 14 42
13 75 -4z m-310 -199 c0 -3 -4 -8 -10 -11 -5 -3 -10 -1 -10 4 0 6 5 11 10 11
6 0 10 -2 10 -4z m-50 -40 c0 -7 9 -21 20 -31 11 -10 17 -22 14 -26 -5 -9 -46
-5 -64 6 -14 8 -13 48 2 63 13 13 28 7 28 -12z m85 4 c3 -5 1 -10 -4 -10 -6 0
-11 5 -11 10 0 6 2 10 4 10 3 0 8 -4 11 -10z m255 -439 c0 -11 4 -22 9 -26 6
-3 6 -18 1 -36 -6 -21 -5 -37 3 -50 9 -15 9 -24 -1 -40 -10 -15 -11 -24 -3
-32 17 -17 14 -107 -3 -107 -11 0 -12 -8 -5 -37 11 -50 4 -69 -31 -85 -17 -7
-30 -18 -30 -24 0 -21 -58 -22 -77 -2 -9 10 -24 18 -35 18 -10 0 -18 6 -18 14
0 8 -8 21 -17 28 -37 27 -67 83 -68 125 -1 23 1 40 6 38 4 -3 5 4 2 15 -5 18
0 20 36 20 35 0 41 3 41 22 0 12 -7 30 -17 40 -15 17 -15 19 0 36 10 10 14 22
10 27 -5 4 11 -4 33 -18 23 -14 45 -23 48 -20 3 4 6 0 6 -7 0 -25 33 16 36 44
2 20 -2 26 -17 26 -10 0 -19 6 -19 14 0 9 12 13 40 12 22 0 40 -4 40 -9 0 -4
4 -6 10 -2 5 3 7 12 3 20 -3 8 0 15 6 15 6 0 11 -9 11 -19z m-787 -458 c-7 -2
-19 -2 -25 0 -7 3 -2 5 12 5 14 0 19 -2 13 -5z m58 -137 c5 3 9 1 9 -4 0 -6
14 -15 30 -21 17 -5 30 -16 30 -23 0 -10 2 -10 9 1 8 12 11 12 25 -1 11 -12
13 -23 7 -46 -5 -17 -7 -33 -4 -36 3 -3 -34 -3 -83 0 -82 5 -174 29 -174 46 0
4 -16 4 -34 1 -24 -4 -40 -1 -50 10 -14 13 -14 16 -1 21 8 3 15 1 15 -4 0 -19
28 -10 60 20 32 30 46 38 36 21 -4 -5 8 -12 25 -16 25 -6 34 -3 46 14 8 12 19
19 24 16 5 -4 9 0 10 7 0 10 2 10 6 0 2 -6 9 -10 14 -6z m116 -38 c-3 -8 -6
-5 -6 6 -1 11 2 17 5 13 3 -3 4 -12 1 -19z m-388 -11 c-27 -26 -32 -27 -23 -4
3 9 13 18 22 20 10 3 19 5 21 6 2 0 -7 -9 -20 -22z m468 -63 c-3 -3 -12 -4
-19 -1 -8 3 -5 6 6 6 11 1 17 -2 13 -5z m160 -150 c-3 -3 -12 -4 -19 -1 -8 3
-5 6 6 6 11 1 17 -2 13 -5z m71 -21 c-2 -20 -9 -29 -25 -31 -22 -3 -33 -22
-13 -22 6 0 10 -4 10 -9 0 -5 -16 -11 -35 -13 -40 -5 -44 1 -14 20 11 7 18 19
16 27 -7 16 28 55 49 55 11 0 14 -8 12 -27z m-128 -13 c0 -5 9 -10 20 -10 11
0 20 -4 20 -10 0 -16 -16 -12 -41 10 -13 10 -18 19 -11 20 6 0 12 -4 12 -10z
m1 -191 c-9 -23 -10 -23 -10 -2 -1 12 2 30 6 40 6 15 8 15 11 2 1 -8 -2 -26
-7 -40z m-420 -62 c-10 -9 -11 -8 -5 6 3 10 9 15 12 12 3 -3 0 -11 -7 -18z"/>
<path d="M2748 2203 c7 -3 16 -2 19 1 4 3 -2 6 -13 5 -11 0 -14 -3 -6 -6z"/>
<path d="M2380 3501 c0 -6 5 -13 10 -16 6 -3 10 1 10 9 0 9 -4 16 -10 16 -5 0
-10 -4 -10 -9z"/>
<path d="M1610 2974 c0 -12 -7 -15 -26 -11 -19 3 -24 1 -20 -9 4 -11 -1 -13
-18 -8 -13 3 -29 0 -37 -8 -20 -19 -69 -39 -69 -28 0 5 -7 7 -15 4 -8 -4 -15
-15 -15 -26 0 -15 5 -19 20 -15 11 3 18 1 14 -4 -3 -5 -15 -9 -27 -9 -18 0
-19 -2 -7 -10 11 -7 11 -10 2 -10 -7 0 -10 -4 -7 -10 9 -14 112 -13 121 2 4 7
3 8 -4 4 -7 -4 -12 -4 -12 1 0 4 34 8 75 9 41 0 75 -4 75 -8 0 -5 -5 -6 -10
-3 -6 3 -13 -1 -16 -9 -3 -9 -11 -16 -18 -17 -12 0 -52 -47 -62 -73 -9 -24 9
-19 37 10 31 33 77 60 116 69 29 6 31 5 28 -21 -1 -14 -9 -30 -16 -35 -8 -5
-9 -9 -3 -9 7 0 14 -9 17 -20 3 -13 0 -20 -9 -20 -16 0 -122 -56 -146 -77 -10
-9 -15 -20 -11 -26 4 -7 -1 -8 -13 -3 -15 6 -17 5 -6 -6 8 -8 42 -13 97 -13
76 -1 81 0 54 12 -32 13 -38 37 -12 52 14 7 24 2 50 -26 38 -40 39 -43 16 -43
-9 0 -13 -3 -9 -7 4 -4 15 -8 24 -8 9 0 17 -7 17 -15 0 -9 8 -14 17 -12 12 2
19 -6 24 -25 3 -15 8 -36 11 -47 3 -10 0 -22 -7 -26 -9 -6 -9 -13 -1 -29 19
-35 73 -28 116 14 38 39 45 62 18 67 -16 3 -16 4 0 20 9 9 17 21 17 27 0 6 5
11 10 11 6 0 10 6 10 14 0 8 6 17 13 19 9 4 8 8 -3 16 -10 7 -11 11 -2 11 6 0
12 9 12 20 0 11 4 20 9 20 18 0 18 39 1 77 -18 40 -63 93 -78 93 -5 0 -12 9
-15 19 -4 15 2 20 28 25 24 5 32 11 30 24 -1 9 2 20 6 23 14 9 -117 73 -135
66 -9 -4 -28 -2 -42 3 -18 7 -30 7 -39 0 -6 -5 -15 -6 -19 -2 -11 10 -95 9
-88 -2 3 -5 -2 -7 -11 -3 -10 3 -17 2 -17 -3 0 -5 -7 -7 -16 -3 -13 5 -13 7
-2 14 10 7 9 9 -4 9 -10 0 -18 -7 -18 -16z m353 -101 c-7 -2 -19 -2 -25 0 -7
3 -2 5 12 5 14 0 19 -2 13 -5z m-258 -23 c-3 -5 -14 -10 -23 -9 -14 0 -13 2 3
9 27 11 27 11 20 0z m92 -212 c-3 -8 -6 -5 -6 6 -1 11 2 17 5 13 3 -3 4 -12 1
-19z m128 12 c3 -5 1 -10 -4 -10 -6 0 -11 5 -11 10 0 6 2 10 4 10 3 0 8 -4 11
-10z m80 -9 c-3 -6 -11 -8 -17 -5 -6 4 -5 9 3 15 16 10 23 4 14 -10z m-135
-186 c0 -8 -4 -15 -10 -15 -5 0 -10 7 -10 15 0 8 5 15 10 15 6 0 10 -7 10 -15z"/>
<path d="M1282 2610 c0 -14 2 -19 5 -12 2 6 2 18 0 25 -3 6 -5 1 -5 -13z"/>
<path d="M1312 2360 c0 -14 2 -19 5 -12 2 6 2 18 0 25 -3 6 -5 1 -5 -13z"/>
<path d="M1356 2197 c3 -10 9 -15 12 -12 3 3 0 11 -7 18 -10 9 -11 8 -5 -6z"/>
<path d="M1404 2070 c3 -14 6 -31 6 -37 0 -7 5 -13 10 -13 12 0 2 50 -13 65
-6 7 -8 2 -3 -15z"/>
<path d="M2074 2035 c-11 -26 3 -43 30 -38 21 4 24 8 16 23 -13 24 -40 33 -46
15z"/>
<path d="M1805 1600 c-3 -5 -1 -10 4 -10 6 0 11 5 11 10 0 6 -2 10 -4 10 -3 0
-8 -4 -11 -10z"/>
<path d="M1701 1450 c16 -33 16 -33 23 -13 4 9 4 14 0 10 -4 -4 -13 1 -21 11
-12 15 -13 14 -2 -8z"/>
<path d="M1698 1277 c-62 -53 -82 -113 -80 -240 2 -164 48 -323 115 -403 52
-62 145 -148 171 -159 67 -28 307 -78 266 -55 -8 4 -44 15 -80 24 -118 30
-233 100 -309 190 -14 15 -30 34 -37 41 -7 7 -28 42 -47 77 -48 91 -63 185
-48 303 15 122 27 159 62 200 42 47 33 62 -13 22z"/>
<path d="M3336 1203 c5 -35 3 -43 -10 -43 -9 0 -16 -6 -16 -14 0 -7 -9 -16
-20 -19 -13 -3 -20 -13 -19 -29 l0 -23 10 23 c9 24 37 25 31 2 -2 -7 3 -17 10
-21 9 -6 6 -9 -11 -9 -18 0 -21 -3 -13 -13 6 -7 13 -25 16 -40 4 -24 3 -26
-14 -17 -16 8 -18 8 -14 -5 4 -8 10 -15 15 -15 5 0 9 -8 10 -17 0 -14 2 -15 6
-3 4 8 13 21 21 30 14 13 15 12 10 -13 -3 -15 -1 -27 3 -27 5 0 9 8 9 18 0 10
5 23 12 30 9 9 7 12 -11 12 -12 0 -20 4 -16 10 3 5 12 7 20 3 11 -3 15 2 15
18 1 21 2 22 11 6 6 -9 14 -15 20 -12 5 4 9 -3 9 -14 0 -15 -5 -19 -17 -14
-11 4 -7 -4 11 -21 20 -20 27 -34 23 -52 -2 -13 0 -27 4 -30 5 -3 9 -16 9 -30
0 -14 7 -32 15 -40 8 -9 15 -25 15 -36 0 -12 3 -18 7 -14 19 18 -5 226 -26
226 -5 0 -12 7 -15 16 -4 10 -2 13 7 8 9 -5 9 -4 1 5 -6 7 -20 14 -30 16 -11
1 -18 8 -16 15 2 8 -3 10 -13 6 -9 -3 -13 -2 -10 4 9 14 32 12 38 -2 4 -10 6
-10 6 0 1 12 19 -2 111 -84 25 -22 89 -73 143 -113 53 -40 109 -88 123 -107
14 -18 29 -32 33 -31 8 2 66 -64 87 -99 7 -11 15 -16 19 -12 11 11 -12 59 -36
76 -10 7 -19 21 -19 30 0 10 -9 25 -20 35 -11 9 -20 24 -20 32 0 8 -19 24 -42
36 -24 12 -45 24 -48 28 -3 3 -18 13 -33 21 -16 8 -24 16 -17 18 6 2 28 -8 49
-22 20 -14 41 -26 45 -26 4 0 14 -7 22 -15 9 -8 23 -14 32 -14 15 1 15 2 0 6
-10 2 -18 11 -18 19 0 8 -4 14 -10 14 -5 0 -10 6 -10 14 0 18 -83 88 -123 103
-23 9 -27 12 -12 13 12 1 3 7 -22 17 -30 10 -43 20 -43 33 0 17 -27 38 -133
104 -16 10 -31 15 -34 13 -2 -3 5 -10 16 -16 11 -7 27 -24 35 -39 17 -33 112
-133 140 -147 20 -10 34 -35 19 -35 -7 0 -28 16 -91 69 -12 11 -31 23 -43 26
-14 5 -18 13 -15 28 3 12 3 16 0 10 -8 -18 -15 -16 -48 12 -16 14 -35 25 -42
25 -7 0 -15 6 -18 13 -5 10 -7 10 -12 0 -9 -20 -20 -15 -20 7 0 14 5 18 17 15
10 -3 20 -1 24 5 3 6 -3 10 -15 10 -14 0 -24 9 -31 30 -6 17 -15 30 -19 30 -5
0 -11 8 -14 18 -3 9 -3 -2 0 -25z"/>
<path d="M2220 1165 c-8 -9 -8 -15 -2 -15 12 0 26 19 19 26 -2 2 -10 -2 -17
-11z"/>
<path d="M3256 993 c7 -4 14 -17 17 -28 5 -16 5 -15 4 4 -1 14 -9 26 -17 28
-10 3 -11 2 -4 -4z"/>
<path d="M3967 759 c7 -7 15 -10 18 -7 3 3 -2 9 -12 12 -14 6 -15 5 -6 -5z"/>
<path d="M2965 710 c-3 -6 1 -7 9 -4 18 7 21 14 7 14 -6 0 -13 -4 -16 -10z"/>
<path d="M3472 625 c0 -16 2 -22 5 -12 2 9 2 23 0 30 -3 6 -5 -1 -5 -18z"/>
<path d="M3929 603 c-1 -5 0 -16 1 -27 1 -11 -3 -15 -9 -12 -16 10 -14 1 9
-41 11 -21 17 -46 14 -55 -3 -10 -1 -18 4 -18 13 0 25 66 17 100 -3 16 -2 31
4 35 6 3 11 10 11 16 0 11 -49 13 -51 2z"/>
<path d="M4446 455 c-9 -26 -7 -32 5 -12 6 10 9 21 6 23 -2 3 -7 -2 -11 -11z"/>
<path d="M3945 430 c-7 -12 2 -30 16 -30 12 0 12 27 0 35 -5 3 -12 1 -16 -5z"/>
<path d="M4416 385 c-9 -21 -16 -41 -16 -46 0 -5 -5 -9 -11 -9 -5 0 -8 -4 -4
-10 7 -12 -50 -92 -59 -82 -4 3 -4 0 -1 -9 3 -8 -1 -61 -10 -117 -18 -121 -17
-112 -5 -112 6 0 10 15 10 34 0 31 12 65 55 161 7 16 17 46 20 65 4 19 10 40
14 45 4 6 8 24 10 40 2 17 7 38 13 48 5 10 7 21 4 24 -2 3 -12 -12 -20 -32z"/>
<path d="M3950 361 c0 -21 5 -31 15 -31 17 0 20 16 5 25 -6 4 -8 10 -5 15 3 5
1 11 -5 15 -6 4 -10 -6 -10 -24z"/>
<path d="M4570 338 c-13 -18 -35 -53 -48 -78 -13 -25 -29 -48 -36 -52 -6 -4
-6 -8 -1 -8 6 0 6 -3 0 -8 -15 -10 -45 -75 -39 -82 3 -3 12 4 20 14 8 11 14
17 14 13 0 -3 27 20 60 53 l60 59 0 61 c0 33 -1 60 -3 60 -2 0 -14 -15 -27
-32z"/>
<path d="M3965 270 c-3 -5 -2 -10 4 -10 5 0 8 -13 6 -29 -2 -20 1 -28 8 -25
14 5 19 54 5 54 -5 0 -6 5 -3 10 3 6 2 10 -4 10 -5 0 -13 -4 -16 -10z"/>
<path d="M3433 218 c-5 -7 -7 -26 -3 -43 l6 -30 8 39 c8 41 4 54 -11 34z"/>
<path d="M3420 94 c0 -8 5 -12 10 -9 6 4 8 11 5 16 -9 14 -15 11 -15 -7z"/>
<path d="M3417 63 c-12 -12 -7 -33 7 -33 8 0 13 7 12 15 -3 19 -11 27 -19 18z"/>
<path d="M4567 30 c-22 -26 -21 -30 2 -30 10 0 22 7 25 16 15 38 0 46 -27 14z"/>
</g>
</svg>
